<svg width="40" height="46" viewBox="0 0 40 46" fill="none" xmlns="http://www.w3.org/2000/svg">
<path d="M20.9517 44.2448L20.9277 44.2492L20.7727 44.3257L20.729 44.3344L20.6984 44.3257L20.5433 44.2492C20.52 44.2419 20.5026 44.2456 20.4909 44.2601L20.4822 44.282L20.445 45.2168L20.456 45.2604L20.4778 45.2888L20.7049 45.4505L20.7377 45.4592L20.7639 45.4505L20.9911 45.2888L21.0173 45.2539L21.026 45.2168L20.9889 44.2842C20.9831 44.2609 20.9707 44.2478 20.9517 44.2448ZM21.5305 43.9981L21.5021 44.0024L21.0981 44.2055L21.0762 44.2274L21.0697 44.2514L21.109 45.1906L21.1199 45.2168L21.1374 45.232L21.5764 45.4352C21.6041 45.4424 21.6252 45.4366 21.6397 45.4177L21.6485 45.3871L21.5742 44.0461C21.5669 44.0199 21.5524 44.0039 21.5305 43.9981ZM19.9689 44.0024C19.9593 43.9966 19.9478 43.9947 19.9368 43.9971C19.9258 43.9996 19.9162 44.0062 19.9099 44.0155L19.8968 44.0461L19.8226 45.3871C19.824 45.4133 19.8364 45.4308 19.8597 45.4395L19.8925 45.4352L20.3315 45.232L20.3533 45.2146L20.362 45.1906L20.3992 44.2514L20.3926 44.2252L20.3708 44.2034L19.9689 44.0024Z" fill="url(#paint0_linear_282_74)"/>
<path d="M28.3929 0C31.2891 0 34.0667 1.15053 36.1147 3.19849C38.1627 5.24645 39.3132 8.02408 39.3132 10.9203V28.3929C39.3132 31.2891 38.1627 34.0667 36.1147 36.1147C34.0667 38.1627 31.2891 39.3132 28.3929 39.3132H10.9203C8.02408 39.3132 5.24645 38.1627 3.19849 36.1147C1.15053 34.0667 0 31.2891 0 28.3929V10.9203C0 8.02408 1.15053 5.24645 3.19849 3.19849C5.24645 1.15053 8.02408 0 10.9203 0H28.3929ZM19.6566 10.9203C17.3396 10.9203 15.1175 11.8408 13.4791 13.4791C11.8408 15.1175 10.9203 17.3396 10.9203 19.6566C10.9203 21.9736 11.8408 24.1957 13.4791 25.8341C15.1175 27.4724 17.3396 28.3929 19.6566 28.3929C21.9736 28.3929 24.1957 27.4724 25.8341 25.8341C27.4724 24.1957 28.3929 21.9736 28.3929 19.6566C28.3929 17.3396 27.4724 15.1175 25.8341 13.4791C24.1957 11.8408 21.9736 10.9203 19.6566 10.9203ZM19.6566 15.2885C20.8151 15.2885 21.9261 15.7487 22.7453 16.5679C23.5645 17.387 24.0247 18.4981 24.0247 19.6566C24.0247 20.8151 23.5645 21.9261 22.7453 22.7453C21.9261 23.5645 20.8151 24.0247 19.6566 24.0247C18.4981 24.0247 17.387 23.5645 16.5679 22.7453C15.7487 21.9261 15.2885 20.8151 15.2885 19.6566C15.2885 18.4981 15.7487 17.387 16.5679 16.5679C17.387 15.7487 18.4981 15.2885 19.6566 15.2885ZM29.4849 7.64423C28.9056 7.64423 28.3501 7.87434 27.9405 8.28393C27.5309 8.69352 27.3008 9.24905 27.3008 9.8283C27.3008 10.4075 27.5309 10.9631 27.9405 11.3727C28.3501 11.7823 28.9056 12.0124 29.4849 12.0124C30.0641 12.0124 30.6197 11.7823 31.0293 11.3727C31.4389 10.9631 31.669 10.4075 31.669 9.8283C31.669 9.24905 31.4389 8.69352 31.0293 8.28393C30.6197 7.87434 30.0641 7.64423 29.4849 7.64423Z" fill="url(#paint1_linear_282_74)"/>
<defs>
<linearGradient id="paint0_linear_282_74" x1="19.7835" y1="44.3023" x2="21.7999" y2="44.4799" gradientUnits="userSpaceOnUse">
<stop stop-color="#E7A24A"/>
<stop offset="1" stop-color="#F08A06"/>
</linearGradient>
<linearGradient id="paint1_linear_282_74" x1="-0.842425" y1="8.22834" x2="42.6938" y2="11.3003" gradientUnits="userSpaceOnUse">
<stop stop-color="#E7A24A"/>
<stop offset="1" stop-color="#F08A06"/>
</linearGradient>
</defs>
</svg>
