<svg width="58" height="58" viewBox="0 0 58 58" fill="none" xmlns="http://www.w3.org/2000/svg">
<path d="M48.0494 9.60986H9.60988C6.96716 9.60986 4.82896 11.7721 4.82896 14.4148L4.80493 43.2445C4.80493 45.8872 6.96716 48.0494 9.60988 48.0494H48.0494C50.6922 48.0494 52.8544 45.8872 52.8544 43.2445V14.4148C52.8544 11.7721 50.6922 9.60986 48.0494 9.60986ZM47.0884 19.8204L30.103 30.4393C29.3342 30.9198 28.3251 30.9198 27.5563 30.4393L10.5709 19.8204C10.33 19.6851 10.119 19.5024 9.95076 19.2833C9.78251 19.0642 9.66048 18.8132 9.59204 18.5455C9.5236 18.2779 9.51018 17.9991 9.55259 17.7262C9.59501 17.4532 9.69237 17.1916 9.83879 16.9573C9.98521 16.7231 10.1776 16.5209 10.4044 16.3632C10.6312 16.2055 10.8877 16.0954 11.1583 16.0396C11.4288 15.9838 11.7079 15.9835 11.9786 16.0388C12.2493 16.094 12.506 16.2035 12.7331 16.3608L28.8297 26.4272L44.9262 16.3608C45.1533 16.2035 45.41 16.094 45.6807 16.0388C45.9514 15.9835 46.2305 15.9838 46.5011 16.0396C46.7716 16.0954 47.0281 16.2055 47.2549 16.3632C47.4817 16.5209 47.6741 16.7231 47.8205 16.9573C47.9669 17.1916 48.0643 17.4532 48.1067 17.7262C48.1491 17.9991 48.1357 18.2779 48.0673 18.5455C47.9988 18.8132 47.8768 19.0642 47.7086 19.2833C47.5403 19.5024 47.3293 19.6851 47.0884 19.8204Z" fill="url(#paint0_linear_282_83)"/>
<defs>
<linearGradient id="paint0_linear_282_83" x1="3.7753" y1="17.6554" x2="56.8384" y2="22.3355" gradientUnits="userSpaceOnUse">
<stop stop-color="#E7A24A"/>
<stop offset="1" stop-color="#F08A06"/>
</linearGradient>
</defs>
</svg>
