<svg width="42" height="42" viewBox="0 0 42 42" fill="none" xmlns="http://www.w3.org/2000/svg">
<path fill-rule="evenodd" clip-rule="evenodd" d="M8.73626 1.74719C6.88266 1.74719 5.10498 2.48353 3.79429 3.79423C2.48359 5.10492 1.74725 6.8826 1.74725 8.7362V33.1977C1.74725 35.0513 2.48359 36.829 3.79429 38.1397C5.10498 39.4504 6.88266 40.1868 8.73626 40.1868H33.1978C35.0514 40.1868 36.8291 39.4504 38.1398 38.1397C39.4505 36.829 40.1868 35.0513 40.1868 33.1977V8.7362C40.1868 6.8826 39.4505 5.10492 38.1398 3.79423C36.8291 2.48353 35.0514 1.74719 33.1978 1.74719H8.73626ZM21.5611 7.86258H25.7318C25.7318 10.6582 28.0941 13.8207 31.6899 13.8207V17.9897C29.2141 17.8184 27.0981 17.4131 25.7318 16.2022V26.9234C25.7318 29.9024 23.3765 34.0714 17.9897 34.0714C11.4096 34.0714 10.2459 28.1132 10.2459 26.3275C10.2459 24.5419 11.2942 18.5837 18.5838 18.5837V22.7544C16.6775 22.3508 14.4148 23.9443 14.4148 26.3275C14.4148 29.3066 16.2023 29.9024 17.9897 29.9024C19.7772 29.9024 21.5628 28.115 21.5628 26.3275L21.5611 7.86258Z" fill="url(#paint0_linear_282_80)"/>
<defs>
<linearGradient id="paint0_linear_282_80" x1="0.923549" y1="9.79268" x2="43.4923" y2="12.7963" gradientUnits="userSpaceOnUse">
<stop stop-color="#E7A24A"/>
<stop offset="1" stop-color="#F08A06"/>
</linearGradient>
</defs>
</svg>
